<svg xmlns="http://www.w3.org/2000/svg" viewBox="0 0 149 63"><defs><style>.cls-1{fill:#fefefe;}.cls-2{fill:#040404;}.cls-3{fill:#060606;}.cls-4{fill:#030303;}.cls-5{fill:#fff;}</style></defs><title>Recurso 2</title><g id="Capa_2" data-name="Capa 2"><g id="Capa_1-2" data-name="Capa 1"><path class="cls-1" d="M74.35,63Q37.72,63,1.09,63C.19,63,0,62.86,0,62.13Q0,31.51,0,.9C0,.21.1,0,1.06,0Q74.52,0,148,0c.82,0,1,.14,1,.81q0,30.67,0,61.34c0,.8-.31.84-1.13.84Q111.1,63,74.35,63Z"/><path class="cls-2" d="M81,39.42c-3,1.47-5.61,1.66-7.65-.76-1.89-2.25-1.94-4.93-.73-7.56a4.16,4.16,0,0,1,4-2.74,37.4,37.4,0,0,0,7.33.07c1.49-.2,1.32,1,1.32,2,0,3.21,0,6.43,0,9.63a5.46,5.46,0,0,1-3.76,5.44,9.58,9.58,0,0,1-8.06-.61c-.78-.41-.69-1-.38-1.59.39-.79.7-1.56,1.89-1.16a10.82,10.82,0,0,0,3.11.63C80,42.79,81.11,41.94,81,39.42Z"/><path class="cls-3" d="M106.76,34.9a32.2,32.2,0,0,0,0-4.17c-.36-2.64,1.67-2.95,2.91-2.2,1.67,1,2.73.3,4.12-.11,3.14-.92,5.66.63,6.07,3.89.28,2.21.08,4.49.18,6.73.06,1.48-.14,2.34-2,2.35s-2.35-.78-2.23-2.46c.11-1.5,0-3,0-4.5s-.65-2.55-2.24-2.56A2.39,2.39,0,0,0,111,34.32a42,42,0,0,0-.06,5.14c.08,1.67-.76,1.88-2.16,1.9s-2.2-.36-2.08-2S106.76,36.4,106.76,34.9Z"/><path class="cls-4" d="M68.08,36.08a4.7,4.7,0,0,1,0,.65c-.15,1.46.68,3.37-.43,4.28a2.66,2.66,0,0,1-3.89-.64c-.06-.09-1.25.67-2,.86a4.92,4.92,0,0,1-5.07-1.12A3.59,3.59,0,0,1,55.92,36c.77-1.79,2.42-2.3,4.23-2.37a6,6,0,0,0,1.28-.05c.82-.22,2.33.65,2.34-.67s-1.49-1.46-2.72-1.57c-1.41-.12-3.78,2.2-4-.8-.21-2.38,2.54-1.95,4.09-2.17C66.4,27.58,68.08,29.52,68.08,36.08Z"/><path class="cls-2" d="M93.92,36.29c-.36.91.06,1.3.93,1.39a7.21,7.21,0,0,0,3.66,0,2.08,2.08,0,0,1,2.77,1.48c.24,1-1.17,1.28-2,1.64a7.26,7.26,0,0,1-8.52-1.72,6.43,6.43,0,0,1-.49-7.78,6.84,6.84,0,0,1,7.9-2.78c3.49,1,4.39,3.73,4.56,6.93-1.74,1-3.64.26-5.46.5C96.17,36.07,95,35.58,93.92,36.29Z"/><path class="cls-2" d="M46.83,41.45a9.32,9.32,0,0,1-4.61-1.22c-.88-.45-.91-1.06-.47-1.84s.67-1.27,1.69-.84c1.51.64,4,2.07,4.49.34s-2.45-1.51-3.8-2.28-2.37-1.87-2.28-3.53a3.62,3.62,0,0,1,2.49-3.42,9.2,9.2,0,0,1,6.59.29c.75.29,1.42.64.91,1.62-.38.74-.63,1.59-1.85,1.28s-3.37-1.79-3.86,0c-.41,1.51,2.21,1.34,3.46,2,1.78.89,3.19,2,2.69,4.18C51.62,40.76,49.33,41.35,46.83,41.45Z"/><path d="M37.08,32.71c0,2,0,4.06,0,6.08,0,1.48.11,2.62-2.06,2.6-2,0-2.24-.88-2.21-2.51q.12-6.08,0-12.15c0-1.59.37-2.26,2.12-2.25s2.28.47,2.17,2.16C37,28.66,37.08,30.69,37.08,32.71Z"/><path class="cls-5" d="M81.14,34.51c-.12,1.56-.67,3-2.51,3-2,.07-2.8-1.34-2.81-3.11s.88-3.16,2.83-3.09S81.08,32.79,81.14,34.51Z"/><path class="cls-5" d="M62,35.61c.74.22,2.18-.49,2,1.16a2.36,2.36,0,0,1-2.57,1.94c-1.06,0-2-.45-1.88-1.65C59.64,35.59,60.88,35.67,62,35.61Z"/><path class="cls-5" d="M96,33.81c-.78-.41-2.25.7-2.31-.75,0-1.26,1.16-1.93,2.45-1.93s2.27.55,2.25,1.73C98.39,34.7,96.78,33.33,96,33.81Z"/></g></g></svg>