<svg xmlns="http://www.w3.org/2000/svg" xmlns:xlink="http://www.w3.org/1999/xlink" viewBox="0 0 262.18 205.14"><defs><style>.cls-1{fill:#fefefe;}.cls-2{fill:#040404;}.cls-3{fill:#060606;}.cls-4{fill:#030303;}.cls-5{fill:#080808;}.cls-6{fill:#151515;}.cls-7{fill:#171717;}.cls-8{fill:#0e0e0e;}.cls-9{fill:#191919;}.cls-10{fill:#101010;}.cls-11{fill:#1a1a1a;}.cls-12{fill:#0a0a0a;}.cls-13{fill:#1c1c1c;}.cls-14{fill:#1d1d1d;}.cls-15{fill:#202020;}.cls-16{fill:#1b1b1b;}.cls-17{fill:#282828;}.cls-18{fill:#2f2f2f;}.cls-19{fill:#fff;}.cls-20{fill:#2a2a2a;}.cls-21{fill:url(#Cielo);}.cls-22{fill:#f0f0f0;}.cls-23{fill:url(#Cielo-2);}.cls-24{fill:url(#Cielo-3);}.cls-25{fill:#232323;}.cls-26{fill:#efefef;}</style><linearGradient id="Cielo" x1="129.54" y1="111.39" x2="135.26" y2="111.39" gradientUnits="userSpaceOnUse"><stop offset="0" stop-color="#cce0f4"/><stop offset="0.06" stop-color="#c3dcf2"/><stop offset="0.17" stop-color="#a9d2ee"/><stop offset="0.31" stop-color="#80c2e7"/><stop offset="0.46" stop-color="#47acde"/><stop offset="0.57" stop-color="#1e9cd7"/><stop offset="0.87" stop-color="#0075be"/><stop offset="0.99" stop-color="#005b97"/></linearGradient><linearGradient id="Cielo-2" x1="90.81" y1="70.43" x2="151.96" y2="70.43" xlink:href="#Cielo"/><linearGradient id="Cielo-3" x1="90.61" y1="104.41" x2="96.06" y2="104.41" xlink:href="#Cielo"/></defs><title>Recurso 5</title><g id="Capa_2" data-name="Capa 2"><g id="Capa_1-2" data-name="Capa 1"><path class="cls-1" d="M130.82,205.08q-64.45,0-128.9.06c-1.59,0-1.92-.44-1.92-2.85Q.09,102.62,0,2.93C0,.69.18,0,1.86,0Q131.13.12,260.38,0c1.44,0,1.79.46,1.79,2.66q-.07,99.85,0,199.71c0,2.61-.54,2.74-2,2.74Q195.51,205,130.82,205.08Z"/><path class="cls-1" d="M131.42,51C139,50.6,145,55.85,145.16,63.19a3,3,0,0,0,2.36,3.23c4.43,1.63,8.87,7.87,8.64,12-.24,4.41-3,7.35-6.14,10-3.79,3.27-8.28,4.07-13.19,3.78-4.14-.25-8.31-.05-12.56-.05.28,1.76,1.37,1.25,2.08,1.26,5.38,0,10.76.16,16.13,0,2.86-.1,5.18.37,7.11,2.72,1.27,1.54,3.17,2.56,4.53,4,2.51,2.75,2.66,5.19.72,7.06-3.24,3.12-6.52,3.4-9.23.79-3.58-3.46-3.58-3.46.81-8.74-3.64,0-6.88,0-10.11,0-1.36,0-1.42,1-1.43,2,0,2.35-.16,4.71.62,7-.92.5-1.51,0-2-.68a16.25,16.25,0,0,1-.06-10.47c5-1.1,10-1.68,14.8.76,1.22,1.58.15,2.56-.92,3.54-1.66,1.8-1.69,3.73.11,5.3,1.57,1.35,3.28.66,4.5-.74,1.52-1.74.81-3.31-.77-4.64a4.24,4.24,0,0,1-2.25-2.6c-.43-1.34-1.73-1.49-2.76-2a8.19,8.19,0,0,0-1.46-.44c-5.77-.18-11.54,0-17.3-.09-1.38,0-2.8.19-4.06-.61a7.33,7.33,0,0,1-.61-6.29c1.44-1,3.09-.62,4.66-.68,5.75-.22,11.51.42,17.24-.39,2.56-.14,4.3-1.65,5.82-3.52a23.8,23.8,0,0,0,2.63-5A3.58,3.58,0,0,0,153,76.6c-1.3-5-5.06-7.56-9.48-9.45-1.57-1.5-.58-3.72-1.56-5.39-1.33-5-4.22-8.48-9.49-9.63A1.31,1.31,0,0,1,131.42,51Z"/><path class="cls-2" d="M128.07,133.56c-3,1.47-5.61,1.66-7.64-.76-1.9-2.25-2-4.93-.74-7.56a4.16,4.16,0,0,1,4-2.74,37.4,37.4,0,0,0,7.33.07c1.49-.2,1.32,1,1.32,2,0,3.21.05,6.42,0,9.63a5.46,5.46,0,0,1-3.76,5.43,9.61,9.61,0,0,1-8.07-.61c-.77-.41-.69-.95-.37-1.59s.69-1.56,1.88-1.16a10.89,10.89,0,0,0,3.12.63C127,136.93,128.15,136.09,128.07,133.56Z"/><path class="cls-3" d="M153.79,129a30.51,30.51,0,0,0,0-4.17c-.36-2.64,1.67-3,2.91-2.2,1.67,1,2.73.3,4.12-.11,3.14-.92,5.66.63,6.07,3.89.28,2.21.08,4.49.18,6.73.07,1.48-.13,2.34-2,2.35s-2.35-.78-2.23-2.46c.11-1.49,0-3,0-4.5s-.66-2.55-2.25-2.56a2.39,2.39,0,0,0-2.47,2.45,40.08,40.08,0,0,0-.07,5.14c.09,1.67-.76,1.88-2.16,1.9s-2.19-.36-2.08-2S153.79,130.54,153.79,129Z"/><path class="cls-4" d="M115.11,130.22c0,.22,0,.43,0,.65-.16,1.46.67,3.37-.44,4.28a2.66,2.66,0,0,1-3.89-.63c-.06-.1-1.25.66-2,.85a4.9,4.9,0,0,1-5.07-1.12,3.58,3.58,0,0,1-.8-4.15c.77-1.79,2.42-2.3,4.23-2.37a6,6,0,0,0,1.28,0c.82-.22,2.33.65,2.34-.67s-1.48-1.46-2.71-1.57c-1.42-.12-3.78,2.2-4-.8-.22-2.38,2.53-2,4.09-2.17C113.44,121.72,115.11,123.66,115.11,130.22Z"/><path class="cls-2" d="M141,130.43c-.37.91,0,1.3.92,1.39a7.21,7.21,0,0,0,3.66,0,2.08,2.08,0,0,1,2.77,1.48c.24,1-1.17,1.28-2,1.64a7.28,7.28,0,0,1-8.52-1.71,6.46,6.46,0,0,1-.49-7.79,6.85,6.85,0,0,1,7.9-2.78c3.49,1,4.4,3.73,4.56,6.93-1.74,1-3.64.26-5.45.5C143.2,130.22,142,129.72,141,130.43Z"/><path class="cls-5" d="M134.12,107.61c.29.56.85.6,1.38.69l.14,1.1-.28.35a2,2,0,0,1-.86.19c-3.74-.41-3.74-.41-4.31,2.89a1.54,1.54,0,0,1-.51.7c-1.12.15-.72-1.1-1.32-1.43-.4-2.17-.1-4,2.44-4.58.41-.12.94-.3,1-.71.14-3.16.79-6.34-.31-9.46l-19.71,0c-.54,3.46-1.11,6.92.4,10.29l.9,1a1,1,0,0,1,0,1,4.24,4.24,0,0,1-3.41-.37c-.55-.45-1-1-.67-1.74l0,0c.29-.09.74-.16.77-.46.38-3.22.89-6.46-.23-9.66l-12.58,0c-.85.2-1.9.91-2.06-.76.21-.76.79-.61,1.33-.55,8-.11,15.95.19,23.91-.18,1.63-2,1.2-4.07.34-6.19-6.33,0-12.65,0-19,0-1.14,0-2.39.23-3.33-.76-.13-.73.37-1,.92-1.18a4.24,4.24,0,0,1,2.29.08c10.9.49,21.81.11,32.71.2a54.2,54.2,0,0,0,8.64-.21,4,4,0,0,1,2.87.1.68.68,0,0,1,.33,1c-2.39,1.15-5,.82-7.48.86q-7.83.14-15.67.23a24.71,24.71,0,0,0-.09,3.44c.07.88-.23,1.87.76,2.47a40.14,40.14,0,0,0,9.1-.1,12,12,0,0,1,3.28.11c3.62.59,7.35-.5,10.93.73,1.43-.12,2.62.1,2.67,1.91a1.09,1.09,0,0,1-1.23.2c-2.08-1.83-4.62-1.23-7-1.29s-4.92,0-7.38-.06C133.14,100.78,132.54,104.24,134.12,107.61Z"/><path class="cls-2" d="M93.86,135.59a9.42,9.42,0,0,1-4.61-1.21c-.87-.46-.91-1.07-.47-1.85s.68-1.27,1.7-.84c1.51.64,3.94,2.07,4.49.34s-2.45-1.51-3.81-2.28-2.37-1.87-2.28-3.53a3.61,3.61,0,0,1,2.5-3.42,9.17,9.17,0,0,1,6.58.29c.76.29,1.42.65.91,1.62-.38.74-.63,1.59-1.84,1.28s-3.38-1.78-3.86,0c-.42,1.51,2.21,1.34,3.45,2,1.78.89,3.19,2,2.69,4.18C98.66,134.9,96.36,135.49,93.86,135.59Z"/><path class="cls-6" d="M153.68,80.06a9.82,9.82,0,0,1-2.62,5.11,2.07,2.07,0,0,1-1-1.54,1.94,1.94,0,0,1,.05-.64c2.15-7.71,1.13-10.17-5.87-14.06-1-.56-2.12-.39-3.09-.88-1.23-.87-.7-2.15-.65-3.25.23-4.42-1.83-7.64-5.44-9.81s-7.39-1.47-11,.46c-1.21.65-2.12,1.8-3.56,2.08-.85-.31-.93-.87-.53-1.59,2.8-4,7.07-4.57,11.43-4.93,5.8,1.23,10,4.22,11.19,10.37.64,1.07.25,2.24.31,3.36s0,1.92,1.23,2.19a12,12,0,0,1,9.56,9.47A7,7,0,0,1,153.68,80.06Z"/><path d="M84.11,126.86c0,2,0,4,0,6.07,0,1.48.1,2.62-2.07,2.6-2,0-2.24-.88-2.21-2.51q.12-6.08,0-12.15c0-1.59.37-2.26,2.12-2.25s2.28.47,2.17,2.16C84,122.8,84.11,124.83,84.11,126.86Z"/><path class="cls-7" d="M98.76,88.24l-.67.65c-5.84-1.42-9.51-6.76-9-13.16.42-5.83,5.25-11,10.6-11.37,1.13-.58,2.51.23,3.58-.66.67-1,.59-2.75,2.49-2.59l.35.34c.23,1.63-.62,2.82-1.61,4-1.32.75-2.88.32-4.24.87-4.72,1.23-7.64,4.15-8.35,9-.74,5.09,1,9,5.77,11.35a4.55,4.55,0,0,1,1.06.73A.75.75,0,0,1,98.76,88.24Z"/><path class="cls-8" d="M94.82,96.56c.47.84,1.32.66,2.06.76-1.5,1-3.46,1.66-.63,3.65a4,4,0,0,1,.33,6.16c-2,1.78-5,1.78-6.49,0-1.74-2-1.49-5.26.9-6.5C92.86,99.66,93.07,97.44,94.82,96.56Z"/><path class="cls-9" d="M120,55.94a1.48,1.48,0,0,0,.75,1.41c-.13,3.08-1.13,4.36-3.35,3.52a11.38,11.38,0,0,0-9.9.59,1.49,1.49,0,0,1-1.53-.13,1.7,1.7,0,0,1-.24-.22C107,58,111.5,56,115.62,57.57,118,58.45,119,57.73,120,55.94Z"/><path class="cls-10" d="M112.85,109.73l.19-1.12c.65,0,.84.6,1.17,1a5.12,5.12,0,0,1,.13,3.43c-1.79,2.43-4.21,3.42-6.7,1.59-1.92-1.41-2.24-3.7-.54-5.82a3.53,3.53,0,0,1,1.15,2c.35.94.39,2.17,1.77,2.22s1.8-.85,2.12-1.91A2.65,2.65,0,0,1,112.85,109.73Z"/><path class="cls-8" d="M120.4,89.64c1.62,2.09,1.19,4.25.23,6.43a188.11,188.11,0,0,1-24-.14c6.62-.67,13.26-.19,19.88-.31,4.27-.07,4.27,0,4.1-4.4A14.32,14.32,0,0,0,120.4,89.64Z"/><path class="cls-5" d="M96.65,95.93l24,.14c-.88.91-2,.55-3.06.55q-9.18.06-18.38,0c-1,0-2.18.36-3-.61A.31.31,0,0,1,96.65,95.93Z"/><path class="cls-5" d="M136.15,113.22c-1.8,2.08-3.78,3.32-6.42,1.33a.73.73,0,0,1,0-1.15l.19-.17c1.49-.21,3.16.24,4.32-1.17.67-.71.51-1.86,1.29-2.52l.14-.14a.45.45,0,0,1,.51.24A4.42,4.42,0,0,1,136.15,113.22Z"/><path class="cls-8" d="M109.46,97.36c1.58,2.74,1.25,8.87-.54,10.12C110.43,104.18,109.45,100.74,109.46,97.36Z"/><path class="cls-11" d="M112.14,107.6c-.56-.08-1.15-.38-1.11-.91.23-3.13-1-6.37.71-9.38C111.28,100.77,110.73,104.22,112.14,107.6Z"/><path class="cls-12" d="M131.45,97.35c1.69,3.18.79,6.49.46,9.77,0,.17-.73.27-1.11.4C132.56,104.23,131.37,100.75,131.45,97.35Z"/><path class="cls-5" d="M107.72,110.81c-.74-.5-.53-1.29-.62-2a1.79,1.79,0,0,1,1.86-1.36l.74,1.34A4.48,4.48,0,0,1,107.72,110.81Z"/><path class="cls-13" d="M136.15,113.22v-3.58A2.41,2.41,0,0,1,136.15,113.22Z"/><path class="cls-14" d="M103.23,63.7c-1,1.29-2.36.55-3.57.66C100.74,63.57,102.08,64.14,103.23,63.7Z"/><path class="cls-15" d="M114.34,113.05l-.13-3.43A2.57,2.57,0,0,1,114.34,113.05Z"/><path class="cls-16" d="M129.7,113.4l0,1.15a2.25,2.25,0,0,1-1.37-2.45Z"/><path class="cls-8" d="M151.65,100.61c1.74,1.4,2.8,3,1.66,5.32a4.52,4.52,0,0,1-4,2.5,3.86,3.86,0,0,1-3.74-2.59,3.94,3.94,0,0,1,.93-4.7,3.26,3.26,0,0,1,1.11,1.41c.27.7.29,1.47.57,2.16s.59,1.45,1.58,1.22A1.7,1.7,0,0,0,151,104.6c.22-.87-.27-1.38-1-1.77s-2-.19-2.36-1.36C148.62,99.52,150.39,101.27,151.65,100.61Z"/><path class="cls-8" d="M135.62,96.14H132.2a51.32,51.32,0,0,1-9.52,0c-1-.81-.72-1.89-.59-2.93,1.37.24.46,1.66,1.17,2.24,6.57.08,13.15.14,19.72.24,1.05,0,2.09.15,3.14.24C142.64,96.7,139.12,96.27,135.62,96.14Z"/><path class="cls-12" d="M150.41,83.76a1.53,1.53,0,0,1,.65,1.41c-1.42,1.67-2.69,3.55-5.21,3.66l0-.65a1,1,0,0,1-.25-.81A13.19,13.19,0,0,1,150.41,83.76Z"/><path class="cls-12" d="M147.11,102.44a1.42,1.42,0,0,1-.62-1.3c.11-1.11,2.4-.77,1.63-2.46l1.23-.2c.63.86.86,2.14,2.3,2.13-1.06,1.17-2.86-.16-3.86,1.16A.79.79,0,0,1,147.11,102.44Z"/><path class="cls-12" d="M135.62,96.14l10.5-.24.56.67C143,96.43,139.27,97.2,135.62,96.14Z"/><path class="cls-17" d="M134.12,107.61c-.29-.12-.8-.21-.82-.37-.5-3.32-1.25-6.67.41-9.91C133.31,100.78,132.74,104.23,134.12,107.61Z"/><path class="cls-1" d="M123.26,95.42c-1.71-.06-.53-1.62-1.17-2.24.56-1-.35-2.31.61-3.26C123.78,91.66,123,93.59,123.26,95.42Z"/><path class="cls-13" d="M144.15,66.93c-1.6.08-1.54-1-1.54-2.11V61.38C144.23,62.92,141.89,65.56,144.15,66.93Z"/><path class="cls-18" d="M153.68,80.06l0-3.66A4,4,0,0,1,153.68,80.06Z"/><path class="cls-19" d="M128.17,128.66c-.12,1.55-.66,3-2.51,3s-2.79-1.34-2.81-3.11.88-3.16,2.83-3.09S128.11,126.93,128.17,128.66Z"/><path class="cls-19" d="M109,129.75c.74.22,2.18-.49,2,1.16a2.35,2.35,0,0,1-2.56,1.94c-1.07,0-2-.45-1.89-1.65C106.67,129.73,107.91,129.81,109,129.75Z"/><path class="cls-19" d="M143.06,128c-.78-.41-2.25.7-2.31-.75-.05-1.26,1.16-1.93,2.45-1.93s2.27.55,2.25,1.73C145.43,128.85,143.81,127.47,143.06,128Z"/><path class="cls-20" d="M145.8,87.51c0,.22,0,.45,0,.67l-2.63.28q-21.21.3-42.42,0l-2-.23a6.08,6.08,0,0,1,0-.61c1.1-1.12,2.54-1,3.91-1q19.76-.06,39.51,0C143.43,86.6,144.75,86.56,145.8,87.51Z"/><path class="cls-12" d="M100.76,88.47h42.42a2.83,2.83,0,0,1-2.13.45H102.9A2.9,2.9,0,0,1,100.76,88.47Z"/><path class="cls-21" d="M134.8,112.71c-1.52,1.26-3.11,1.88-4.91.52-.06-1.3-1-2.79.44-3.81s2.93-.7,4.34.2C135.58,110.62,135.29,111.66,134.8,112.71Z"/><path class="cls-22" d="M107.72,110.81c.27-1.06.68-2,2-2a4.69,4.69,0,0,1,3.15.93,7.33,7.33,0,0,1-.07,2.53,2.76,2.76,0,0,1-3.13,1.64C107.47,113.72,108.11,112,107.72,110.81Z"/><path class="cls-12" d="M122.68,96.11l9.52,0A18.19,18.19,0,0,1,122.68,96.11Z"/><path class="cls-13" d="M134.8,112.71a3.64,3.64,0,0,0-.13-3.09l.83-.08C135.38,110.63,136.14,111.9,134.8,112.71Z"/><path class="cls-23" d="M145.8,87.51c-15.69.79-31.38.41-47.07.12-4.7-1.16-7.63-4.89-7.91-10.08-.26-4.85,2.63-9.59,6.8-11.11.79-.29,1.6-.52,2.41-.78,1.41-.71,3,.25,4.43-.59l1.5-3.74c1.27.31,1.85-.87,2.76-1.32,2.31-1.14,4.85-1.79,7-.51,3,1.75,4.3.84,5-2.15,3.8-4.3,9.49-5.63,14.22-3.42,4.5,2.1,7.71,7.85,5.84,13.35,0,.1.21.3.33.45,1.07.62,2.4-.21,3.44.63,7.21,3.17,9.12,8.18,5.84,15.4C149.3,85.53,147.43,86.37,145.8,87.51Z"/><path class="cls-13" d="M144.57,68.36c-1.18-.08-2.44.35-3.44-.63C142.3,67.78,143.59,67.19,144.57,68.36Z"/><path class="cls-14" d="M104.46,65.07c-1.33,1.26-3,.29-4.43.59C101.38,64.53,103,65.3,104.46,65.07Z"/><path class="cls-24" d="M91.15,102.5c1.72-1.22,3.46-1.61,4.6.58,1,1.9-.6,2.76-1.89,3.75-1.75,1.34-2.1-.44-2.94-1.17C90.69,104.58,90.26,103.5,91.15,102.5Z"/><path class="cls-25" d="M91.15,102.5l-.23,3.16C90.06,104.54,89.85,103.47,91.15,102.5Z"/><path class="cls-26" d="M147.11,102.44l.68-.67c1.79-.42,3.48-.27,4.23,1.65s-.89,2.43-2,3.4c-1.49,1.35-1.71-.41-2.33-.86C146.48,105.07,147.1,103.66,147.11,102.44Z"/></g></g></svg>