<svg xmlns="http://www.w3.org/2000/svg" xmlns:xlink="http://www.w3.org/1999/xlink" viewBox="0 0 165.09 64.6"><defs><style>.cls-1{fill:#fefefe;}.cls-2{fill:#040404;}.cls-3{fill:#060606;}.cls-4{fill:#030303;}.cls-5{fill:#080808;}.cls-6{fill:#151515;}.cls-7{fill:#171717;}.cls-8{fill:#0e0e0e;}.cls-9{fill:#191919;}.cls-10{fill:#101010;}.cls-11{fill:#1a1a1a;}.cls-12{fill:#0a0a0a;}.cls-13{fill:#1c1c1c;}.cls-14{fill:#1d1d1d;}.cls-15{fill:#202020;}.cls-16{fill:#1b1b1b;}.cls-17{fill:#282828;}.cls-18{fill:#2f2f2f;}.cls-19{fill:#fff;}.cls-20{fill:#2a2a2a;}.cls-21{fill:url(#Cielo);}.cls-22{fill:#f0f0f0;}.cls-23{fill:url(#Cielo-2);}.cls-24{fill:url(#Cielo-3);}.cls-25{fill:#232323;}.cls-26{fill:#efefef;}</style><linearGradient id="Cielo" x1="40.58" y1="60.4" x2="46.3" y2="60.4" gradientUnits="userSpaceOnUse"><stop offset="0" stop-color="#cce0f4"/><stop offset="0.06" stop-color="#c3dcf2"/><stop offset="0.17" stop-color="#a9d2ee"/><stop offset="0.31" stop-color="#80c2e7"/><stop offset="0.46" stop-color="#47acde"/><stop offset="0.57" stop-color="#1e9cd7"/><stop offset="0.87" stop-color="#0075be"/><stop offset="0.99" stop-color="#005b97"/></linearGradient><linearGradient id="Cielo-2" x1="1.84" y1="19.44" x2="63" y2="19.44" xlink:href="#Cielo"/><linearGradient id="Cielo-3" x1="1.65" y1="53.42" x2="7.1" y2="53.42" xlink:href="#Cielo"/></defs><title>Recurso 4</title><g id="Capa_2" data-name="Capa 2"><g id="Capa_1-2" data-name="Capa 1"><path class="cls-1" d="M42.46,0C50-.39,56,4.85,56.2,12.2a3,3,0,0,0,2.36,3.23c4.43,1.63,8.87,7.87,8.64,12-.25,4.41-3,7.35-6.15,10-3.78,3.27-8.28,4.07-13.18,3.78-4.15-.25-8.32,0-12.56,0,.28,1.76,1.37,1.25,2.08,1.26,5.37.05,10.75.16,16.12,0,2.87-.09,5.19.38,7.12,2.73,1.27,1.54,3.17,2.56,4.53,4,2.51,2.75,2.66,5.18.71,7.06-3.23,3.12-6.52,3.4-9.22.79-3.58-3.46-3.58-3.46.81-8.74-3.64,0-6.88,0-10.11,0-1.36,0-1.43,1-1.43,2a20.84,20.84,0,0,0,.61,7c-.92.49-1.5,0-2-.68a16.25,16.25,0,0,1,0-10.47c5-1.11,10-1.68,14.8.76,1.22,1.58.14,2.56-.92,3.54-1.66,1.8-1.69,3.73.11,5.3,1.56,1.35,3.28.66,4.5-.74,1.52-1.74.81-3.31-.78-4.64a4.21,4.21,0,0,1-2.24-2.61c-.43-1.33-1.73-1.48-2.76-2a8.19,8.19,0,0,0-1.46-.44c-5.77-.18-11.54,0-17.31-.09-1.37,0-2.79.19-4.06-.61a7.37,7.37,0,0,1-.61-6.29c1.45-1,3.09-.62,4.67-.68,5.75-.22,11.51.42,17.24-.39,2.55-.15,4.3-1.65,5.81-3.52a23.38,23.38,0,0,0,2.64-5A3.58,3.58,0,0,0,64,25.61c-1.3-5-5.06-7.56-9.48-9.45C53,14.66,54,12.43,53,10.77c-1.32-5-4.21-8.48-9.49-9.64A1.28,1.28,0,0,1,42.46,0Z"/><path class="cls-2" d="M126.11,36.57c-3,1.47-5.61,1.66-7.65-.76-1.89-2.25-1.94-4.93-.73-7.56a4.18,4.18,0,0,1,4-2.75,36.64,36.64,0,0,0,7.33.08c1.49-.2,1.32,1,1.32,2,0,3.21,0,6.43,0,9.63a5.46,5.46,0,0,1-3.76,5.44,9.58,9.58,0,0,1-8.06-.61c-.78-.41-.69-.95-.38-1.59s.7-1.56,1.89-1.16a10.82,10.82,0,0,0,3.11.63C125,39.94,126.18,39.09,126.11,36.57Z"/><path class="cls-3" d="M151.83,32.05a32.2,32.2,0,0,0,0-4.17c-.36-2.64,1.67-3,2.91-2.21,1.67,1,2.73.31,4.12-.1,3.14-.92,5.66.63,6.07,3.89.28,2.21.08,4.48.18,6.73.06,1.48-.14,2.34-2,2.35s-2.35-.78-2.23-2.46c.11-1.5,0-3,0-4.5S160.18,29,158.59,29a2.39,2.39,0,0,0-2.48,2.45,42,42,0,0,0-.06,5.14c.08,1.67-.76,1.88-2.16,1.9s-2.2-.36-2.08-2S151.83,33.55,151.83,32.05Z"/><path class="cls-4" d="M113.15,33.23c0,.22,0,.43,0,.64-.15,1.47.68,3.38-.43,4.29a2.66,2.66,0,0,1-3.89-.64c-.06-.09-1.25.67-2,.86a4.92,4.92,0,0,1-5.07-1.12,3.59,3.59,0,0,1-.79-4.15c.77-1.79,2.42-2.3,4.23-2.37a6,6,0,0,0,1.28,0c.82-.22,2.32.65,2.34-.67s-1.49-1.46-2.72-1.57c-1.41-.12-3.78,2.2-4.05-.8-.21-2.38,2.54-1.95,4.09-2.17C111.47,24.73,113.15,26.67,113.15,33.23Z"/><path class="cls-2" d="M139,33.44c-.36.91.06,1.3.93,1.39a7.21,7.21,0,0,0,3.66,0,2.08,2.08,0,0,1,2.77,1.48c.24,1-1.17,1.27-2,1.64a7.26,7.26,0,0,1-8.52-1.72,6.43,6.43,0,0,1-.49-7.78,6.84,6.84,0,0,1,7.9-2.78c3.49,1,4.39,3.73,4.56,6.93-1.74,1-3.64.26-5.46.5C141.24,33.22,140.05,32.73,139,33.44Z"/><path class="cls-5" d="M45.16,56.62c.29.56.84.6,1.37.69l.15,1.1-.28.35a2,2,0,0,1-.87.19c-3.74-.41-3.74-.41-4.31,2.89a1.59,1.59,0,0,1-.5.7c-1.12.15-.72-1.1-1.32-1.43-.4-2.17-.1-4,2.43-4.58.42-.12,1-.31,1-.71.14-3.16.79-6.34-.31-9.46l-19.71,0c-.55,3.46-1.12,6.92.4,10.29l.9,1a1.08,1.08,0,0,1,0,1,4.24,4.24,0,0,1-3.41-.37c-.56-.45-1-1-.67-1.74l-.05,0c.3-.1.74-.16.78-.46.38-3.23.89-6.46-.23-9.66l-12.58,0c-.86.21-1.9.92-2.06-.75.21-.76.79-.61,1.33-.55,8-.11,15.94.18,23.91-.18,1.63-2,1.2-4.07.34-6.19-6.33,0-12.66,0-19,0-1.14,0-2.39.23-3.33-.76-.14-.73.37-1,.91-1.18a4.28,4.28,0,0,1,2.3.08c10.9.49,21.81.11,32.71.19a53,53,0,0,0,8.64-.2,3.92,3.92,0,0,1,2.86.1.68.68,0,0,1,.34,1c-2.4,1.15-5,.82-7.48.86q-7.84.13-15.68.23a24.7,24.7,0,0,0-.08,3.44c.07.88-.23,1.87.76,2.47a40.14,40.14,0,0,0,9.1-.1,11.63,11.63,0,0,1,3.28.11c3.62.59,7.35-.5,10.93.73,1.43-.12,2.62.1,2.67,1.91a1.1,1.1,0,0,1-1.23.2c-2.08-1.83-4.62-1.23-7-1.29s-4.92,0-7.38-.06C44.18,49.79,43.57,53.25,45.16,56.62Z"/><path class="cls-2" d="M91.9,38.6a9.32,9.32,0,0,1-4.61-1.22c-.88-.45-.91-1.06-.47-1.84s.67-1.27,1.69-.84c1.51.64,3.95,2.07,4.49.34s-2.45-1.51-3.8-2.28-2.37-1.87-2.28-3.53a3.62,3.62,0,0,1,2.49-3.42A9.2,9.2,0,0,1,96,26.1c.75.29,1.42.64.91,1.62-.38.74-.63,1.59-1.85,1.28s-3.37-1.79-3.86,0c-.41,1.52,2.21,1.35,3.46,2,1.78.89,3.19,2,2.69,4.18C96.69,37.91,94.4,38.5,91.9,38.6Z"/><path class="cls-6" d="M64.71,29.07a9.73,9.73,0,0,1-2.61,5.1,2,2,0,0,1-1-1.53,1.94,1.94,0,0,1,0-.64c2.16-7.71,1.14-10.17-5.86-14.06-1-.56-2.12-.39-3.09-.88-1.23-.88-.71-2.15-.65-3.25.23-4.42-1.83-7.64-5.45-9.81s-7.38-1.47-11,.46c-1.21.65-2.13,1.8-3.56,2.08C30.7,6.23,30.63,5.67,31,5,33.83,1,38.09.38,42.46,0c5.8,1.23,10,4.22,11.19,10.37.64,1.07.25,2.24.3,3.36s0,1.92,1.24,2.19a12,12,0,0,1,9.56,9.47A7,7,0,0,1,64.71,29.07Z"/><path d="M82.15,29.86c0,2,0,4.06,0,6.08,0,1.48.11,2.62-2.07,2.6-2,0-2.23-.88-2.2-2.51q.12-6.08,0-12.15c0-1.59.37-2.26,2.12-2.25s2.28.46,2.17,2.16C82.05,25.81,82.15,27.84,82.15,29.86Z"/><path class="cls-7" d="M9.79,37.25l-.66.65c-5.85-1.42-9.51-6.76-9-13.16.42-5.83,5.24-11,10.6-11.37,1.12-.59,2.51.23,3.57-.66.67-1,.6-2.75,2.5-2.6.11.12.23.24.35.35.23,1.63-.62,2.82-1.62,3.95-1.31.74-2.87.32-4.23.87-4.72,1.22-7.64,4.15-8.35,9-.74,5.09,1,9,5.77,11.35a4.55,4.55,0,0,1,1.06.73A.74.74,0,0,1,9.79,37.25Z"/><path class="cls-8" d="M5.86,45.57c.47.84,1.31.66,2.06.75-1.5,1-3.46,1.67-.63,3.66a4,4,0,0,1,.33,6.16c-2,1.78-5,1.78-6.49,0-1.74-2-1.49-5.26.9-6.5C3.9,48.67,4.1,46.45,5.86,45.57Z"/><path class="cls-9" d="M31,5a1.47,1.47,0,0,0,.75,1.4c-.12,3.09-1.12,4.37-3.35,3.52a11.4,11.4,0,0,0-9.89.6A1.49,1.49,0,0,1,17,10.34a1.31,1.31,0,0,1-.24-.23C18,7,22.53,5.05,26.66,6.58,29,7.46,30,6.74,31,5Z"/><path class="cls-10" d="M23.88,58.74l.2-1.12c.65,0,.84.6,1.17,1a5.21,5.21,0,0,1,.12,3.44c-1.78,2.43-4.2,3.42-6.69,1.59-1.92-1.41-2.24-3.7-.54-5.82a3.59,3.59,0,0,1,1.15,2c.34.94.38,2.17,1.77,2.22s1.79-.85,2.11-1.91A2.68,2.68,0,0,1,23.88,58.74Z"/><path class="cls-8" d="M31.44,38.65c1.62,2.09,1.19,4.25.23,6.43a188.11,188.11,0,0,1-24-.14c6.61-.67,13.25-.19,19.88-.31,4.26-.07,4.27,0,4.1-4.4A14.32,14.32,0,0,0,31.44,38.65Z"/><path class="cls-5" d="M7.69,44.94l24,.14c-.88.91-2,.55-3.06.55q-9.19,0-18.39,0c-1,0-2.18.36-3-.61A.31.31,0,0,1,7.69,44.94Z"/><path class="cls-5" d="M47.18,62.23c-1.79,2.08-3.77,3.31-6.41,1.33a.72.72,0,0,1,0-1.15l.19-.17c1.49-.21,3.16.24,4.31-1.17.68-.71.52-1.86,1.3-2.52l.14-.14a.46.46,0,0,1,.51.24A4.38,4.38,0,0,1,47.18,62.23Z"/><path class="cls-8" d="M20.5,46.37c1.57,2.74,1.24,8.86-.55,10.12C21.47,53.19,20.49,49.75,20.5,46.37Z"/><path class="cls-11" d="M23.18,56.61c-.56-.08-1.16-.38-1.12-.91.24-3.13-1-6.37.72-9.38C22.32,49.78,21.76,53.23,23.18,56.61Z"/><path class="cls-12" d="M42.49,46.36c1.69,3.18.78,6.49.46,9.77,0,.16-.73.26-1.12.4C43.6,53.24,42.41,49.76,42.49,46.36Z"/><path class="cls-5" d="M18.76,59.82c-.74-.5-.54-1.29-.62-2A1.77,1.77,0,0,1,20,56.47l.74,1.34A4.63,4.63,0,0,1,18.76,59.82Z"/><path class="cls-13" d="M47.18,62.23V58.65A2.41,2.41,0,0,1,47.18,62.23Z"/><path class="cls-14" d="M14.26,12.71c-1,1.29-2.36.55-3.57.66C11.78,12.58,13.11,13.15,14.26,12.71Z"/><path class="cls-15" d="M25.37,62.06l-.12-3.44A2.6,2.6,0,0,1,25.37,62.06Z"/><path class="cls-16" d="M40.74,62.41l0,1.15a2.25,2.25,0,0,1-1.37-2.45Z"/><path class="cls-8" d="M62.68,49.62c1.75,1.4,2.81,3,1.67,5.31a4.52,4.52,0,0,1-4,2.51,3.85,3.85,0,0,1-3.74-2.59,3.92,3.92,0,0,1,.93-4.7,3.26,3.26,0,0,1,1.11,1.41c.27.7.29,1.47.57,2.16s.59,1.45,1.58,1.21A1.69,1.69,0,0,0,62,53.61c.22-.87-.27-1.38-1-1.77s-2-.19-2.36-1.36C59.66,48.53,61.43,50.28,62.68,49.62Z"/><path class="cls-8" d="M46.66,45.15H43.24a51.31,51.31,0,0,1-9.52,0c-1-.81-.72-1.89-.6-2.93,1.38.24.46,1.66,1.18,2.24q9.86.1,19.71.24c1.05,0,2.1.15,3.15.24C53.67,45.71,50.16,45.28,46.66,45.15Z"/><path class="cls-12" d="M61.45,32.77a1.52,1.52,0,0,1,.65,1.4c-1.42,1.67-2.69,3.56-5.21,3.67l0-.65a1,1,0,0,1-.25-.81A13,13,0,0,1,61.45,32.77Z"/><path class="cls-12" d="M58.15,51.44a1.37,1.37,0,0,1-.62-1.29c.11-1.11,2.4-.77,1.63-2.46l1.23-.2c.63.86.86,2.14,2.29,2.13-1,1.17-2.85-.16-3.86,1.15A.76.76,0,0,1,58.15,51.44Z"/><path class="cls-12" d="M46.66,45.15l10.5-.24.56.67C54,45.44,50.31,46.21,46.66,45.15Z"/><path class="cls-17" d="M45.16,56.62c-.29-.12-.8-.21-.83-.37-.49-3.33-1.24-6.67.42-9.91C44.34,49.79,43.77,53.24,45.16,56.62Z"/><path class="cls-1" d="M34.3,44.43c-1.71-.06-.53-1.62-1.18-2.24.57-1-.35-2.31.61-3.26C34.82,40.67,34.08,42.6,34.3,44.43Z"/><path class="cls-13" d="M55.19,15.94c-1.6.08-1.54-1-1.54-2.11V10.39C55.27,11.93,52.93,14.57,55.19,15.94Z"/><path class="cls-18" d="M64.71,29.07c0-1.22,0-2.44,0-3.66A4,4,0,0,1,64.71,29.07Z"/><path class="cls-19" d="M126.21,31.66c-.12,1.56-.67,3-2.51,3-2,.07-2.8-1.34-2.81-3.11s.88-3.17,2.83-3.09S126.15,29.94,126.21,31.66Z"/><path class="cls-19" d="M107.07,32.76c.74.22,2.18-.49,2,1.16a2.36,2.36,0,0,1-2.57,1.94c-1.06,0-2-.45-1.88-1.65C104.71,32.74,106,32.82,107.07,32.76Z"/><path class="cls-19" d="M141.1,31c-.78-.41-2.25.7-2.31-.75,0-1.26,1.16-1.93,2.45-1.93s2.27.55,2.25,1.73C143.46,31.85,141.85,30.48,141.1,31Z"/><path class="cls-20" d="M56.84,36.52c0,.22,0,.45,0,.67l-2.63.28q-21.21.3-42.42,0l-2-.23a4.1,4.1,0,0,1,0-.61c1.09-1.12,2.54-1,3.91-1q19.76,0,39.51,0C54.47,35.61,55.78,35.57,56.84,36.52Z"/><path class="cls-12" d="M11.8,37.48H54.22a2.85,2.85,0,0,1-2.14.44q-19.06,0-38.15,0A2.87,2.87,0,0,1,11.8,37.48Z"/><path class="cls-21" d="M45.84,61.72c-1.52,1.26-3.11,1.88-4.91.52-.06-1.3-1-2.79.43-3.81s2.94-.7,4.35.2C46.61,59.62,46.33,60.67,45.84,61.72Z"/><path class="cls-22" d="M18.76,59.82c.26-1.06.67-2,2-2a4.65,4.65,0,0,1,3.14.93,7.1,7.1,0,0,1-.06,2.53,2.76,2.76,0,0,1-3.13,1.64C18.5,62.72,19.14,61,18.76,59.82Z"/><path class="cls-12" d="M33.72,45.12l9.52,0A18.3,18.3,0,0,1,33.72,45.12Z"/><path class="cls-13" d="M45.84,61.72a3.67,3.67,0,0,0-.13-3.09l.83-.08C46.42,59.64,47.18,60.91,45.84,61.72Z"/><path class="cls-23" d="M56.84,36.52c-15.69.79-31.38.41-47.07.12-4.71-1.16-7.63-4.89-7.91-10.08C1.6,21.71,4.49,17,8.65,15.45c.8-.29,1.61-.53,2.42-.78,1.41-.71,3,.25,4.43-.59L17,10.34c1.27.3,1.85-.87,2.76-1.32,2.3-1.14,4.84-1.79,7-.51,3,1.75,4.3.84,5-2.16C35.57,2.06,41.26.73,46,2.94c4.51,2.1,7.72,7.85,5.85,13.35,0,.1.21.3.32.45,1.07.62,2.41-.21,3.44.62,7.22,3.18,9.12,8.19,5.85,15.41C60.34,34.54,58.47,35.38,56.84,36.52Z"/><path class="cls-13" d="M55.6,17.36c-1.17-.07-2.43.36-3.44-.62C53.34,16.79,54.63,16.19,55.6,17.36Z"/><path class="cls-14" d="M15.5,14.08c-1.34,1.26-3,.29-4.43.59C12.42,13.54,14,14.31,15.5,14.08Z"/><path class="cls-24" d="M2.19,51.51c1.71-1.22,3.45-1.61,4.6.58,1,1.9-.61,2.76-1.89,3.75C3.14,57.18,2.8,55.4,2,54.67,1.72,53.59,1.3,52.5,2.19,51.51Z"/><path class="cls-25" d="M2.19,51.51,2,54.67C1.1,53.55.89,52.48,2.19,51.51Z"/><path class="cls-26" d="M58.15,51.44l.67-.67c1.8-.41,3.49-.26,4.24,1.66s-.9,2.43-2,3.4c-1.5,1.35-1.72-.41-2.34-.86C57.51,54.08,58.13,52.67,58.15,51.44Z"/></g></g></svg>