<svg xmlns="http://www.w3.org/2000/svg" xmlns:xlink="http://www.w3.org/1999/xlink" viewBox="0 0 217.03 172"><defs><style>.cls-1{fill:#fefefe;}.cls-2{fill:#080808;}.cls-3{fill:#151515;}.cls-4{fill:#171717;}.cls-5{fill:#0e0e0e;}.cls-6{fill:#191919;}.cls-7{fill:#101010;}.cls-8{fill:#1a1a1a;}.cls-9{fill:#0a0a0a;}.cls-10{fill:#1c1c1c;}.cls-11{fill:#1d1d1d;}.cls-12{fill:#202020;}.cls-13{fill:#1b1b1b;}.cls-14{fill:#282828;}.cls-15{fill:#2f2f2f;}.cls-16{fill:#fff;}.cls-17{fill:#2a2a2a;}.cls-18{fill:url(#Cielo);}.cls-19{fill:#f0f0f0;}.cls-20{fill:url(#Cielo-2);}.cls-21{fill:url(#Cielo-3);}.cls-22{fill:#232323;}.cls-23{fill:#efefef;}</style><linearGradient id="Cielo" x1="112.54" y1="111.25" x2="118.26" y2="111.25" gradientUnits="userSpaceOnUse"><stop offset="0" stop-color="#cce0f4"/><stop offset="0.06" stop-color="#c3dcf2"/><stop offset="0.17" stop-color="#a9d2ee"/><stop offset="0.31" stop-color="#80c2e7"/><stop offset="0.46" stop-color="#47acde"/><stop offset="0.57" stop-color="#1e9cd7"/><stop offset="0.87" stop-color="#0075be"/><stop offset="0.99" stop-color="#005b97"/></linearGradient><linearGradient id="Cielo-2" x1="73.81" y1="70.29" x2="134.96" y2="70.29" xlink:href="#Cielo"/><linearGradient id="Cielo-3" x1="73.61" y1="104.27" x2="79.06" y2="104.27" xlink:href="#Cielo"/></defs><title>Recurso 1</title><g id="Capa_2" data-name="Capa 2"><g id="Capa_1-2" data-name="Capa 1"><path class="cls-1" d="M108.29,172q-53.36,0-106.7.05C.27,172,0,171.63,0,169.61Q.08,86,0,2.46C0,.58.15,0,1.54,0q107,.11,214,0C216.73,0,217,.4,217,2.25Q217,86,217,169.7c0,2.18-.45,2.29-1.64,2.29Q161.84,171.92,108.29,172Z"/><path class="cls-1" d="M114.42,50.87C122,50.46,128,55.7,128.16,63.05a3,3,0,0,0,2.36,3.23c4.43,1.63,8.87,7.87,8.64,12-.24,4.41-3,7.35-6.14,10-3.79,3.27-8.28,4.07-13.19,3.78-4.14-.25-8.31-.05-12.56-.05.28,1.76,1.37,1.25,2.08,1.26,5.38,0,10.76.16,16.13,0,2.86-.09,5.18.38,7.11,2.73,1.27,1.54,3.17,2.56,4.53,4,2.51,2.75,2.66,5.18.72,7.06-3.24,3.12-6.52,3.4-9.23.79-3.58-3.46-3.58-3.46.81-8.74-3.64,0-6.88,0-10.11,0-1.36,0-1.42,1-1.43,2,0,2.35-.16,4.71.62,7-.92.49-1.51,0-2-.68A16.25,16.25,0,0,1,116.41,97c5-1.1,10-1.68,14.8.76,1.22,1.58.15,2.56-.92,3.54-1.66,1.8-1.69,3.73.11,5.3,1.57,1.35,3.28.66,4.5-.74,1.52-1.74.81-3.31-.77-4.64a4.23,4.23,0,0,1-2.25-2.61c-.43-1.33-1.73-1.48-2.76-2a8.19,8.19,0,0,0-1.46-.44c-5.77-.18-11.54,0-17.3-.09-1.38,0-2.8.19-4.06-.61a7.33,7.33,0,0,1-.61-6.29c1.44-1,3.09-.62,4.66-.68,5.75-.22,11.51.42,17.24-.39,2.56-.15,4.3-1.65,5.82-3.52a23.8,23.8,0,0,0,2.63-5,3.58,3.58,0,0,0-.07-3.19c-1.3-5-5.06-7.56-9.48-9.45-1.57-1.5-.58-3.73-1.56-5.39-1.33-5-4.22-8.48-9.49-9.64A1.29,1.29,0,0,1,114.42,50.87Z"/><path class="cls-2" d="M117.12,107.47c.29.56.85.6,1.38.69l.14,1.1-.28.35a2,2,0,0,1-.86.19c-3.74-.41-3.74-.41-4.31,2.89a1.54,1.54,0,0,1-.51.7c-1.12.15-.72-1.1-1.32-1.43-.4-2.17-.1-4,2.44-4.58.41-.12.94-.31,1-.71.14-3.16.79-6.34-.31-9.46l-19.71,0c-.54,3.46-1.11,6.92.4,10.29l.9,1a1,1,0,0,1,0,1,4.24,4.24,0,0,1-3.41-.37c-.55-.45-1-1-.67-1.74l0,0c.29-.1.74-.16.77-.46.38-3.23.89-6.46-.23-9.66l-12.58,0c-.85.21-1.9.92-2.06-.75.21-.76.79-.61,1.33-.55,8-.11,15.95.19,23.91-.18,1.63-2,1.2-4.07.34-6.19-6.33,0-12.65,0-19,0-1.14,0-2.39.23-3.33-.76-.13-.73.37-1,.92-1.18a4.24,4.24,0,0,1,2.29.08c10.9.49,21.81.11,32.71.19a53,53,0,0,0,8.64-.2,4,4,0,0,1,2.87.1.68.68,0,0,1,.33,1c-2.39,1.15-5,.82-7.48.86q-7.83.14-15.67.23a24.71,24.71,0,0,0-.09,3.44c.07.88-.23,1.87.76,2.47a40.14,40.14,0,0,0,9.1-.1,11.63,11.63,0,0,1,3.28.11c3.62.59,7.35-.5,10.93.73,1.43-.12,2.62.1,2.67,1.91a1.09,1.09,0,0,1-1.23.2c-2.08-1.83-4.62-1.23-7-1.29s-4.92,0-7.38-.06C116.14,100.64,115.54,104.1,117.12,107.47Z"/><path class="cls-3" d="M136.68,79.92A9.82,9.82,0,0,1,134.06,85a2.09,2.09,0,0,1-1-1.54,1.94,1.94,0,0,1,.05-.64c2.15-7.71,1.13-10.17-5.87-14.06-.95-.56-2.12-.39-3.09-.88-1.23-.87-.7-2.15-.65-3.25.23-4.42-1.83-7.64-5.44-9.81s-7.39-1.47-11,.46c-1.21.65-2.12,1.8-3.56,2.08-.85-.31-.93-.87-.53-1.59,2.8-4,7.07-4.57,11.43-4.93,5.8,1.23,10,4.22,11.19,10.37.64,1.07.25,2.24.31,3.36,0,1,0,1.92,1.23,2.19a12,12,0,0,1,9.56,9.47A7,7,0,0,1,136.68,79.92Z"/><path class="cls-4" d="M81.76,88.1l-.67.65c-5.84-1.42-9.51-6.76-9-13.16.42-5.83,5.25-11,10.6-11.37,1.13-.58,2.51.23,3.58-.66.67-1,.59-2.75,2.49-2.6l.35.35c.23,1.63-.62,2.82-1.61,4-1.32.74-2.88.32-4.24.87-4.72,1.22-7.64,4.15-8.35,9-.74,5.09,1,9,5.77,11.35a4.55,4.55,0,0,1,1.06.73A.75.75,0,0,1,81.76,88.1Z"/><path class="cls-5" d="M77.82,96.42c.47.84,1.32.66,2.06.75-1.5,1-3.46,1.67-.63,3.66a4,4,0,0,1,.33,6.16c-2,1.78-5,1.78-6.49,0-1.74-2-1.49-5.26.9-6.5C75.86,99.52,76.07,97.3,77.82,96.42Z"/><path class="cls-6" d="M103,55.8c.05.57.14,1.12.75,1.4-.13,3.09-1.13,4.37-3.35,3.52a11.42,11.42,0,0,0-9.9.6A1.49,1.49,0,0,1,89,61.19a1.31,1.31,0,0,1-.24-.23c1.28-3.15,5.78-5.06,9.9-3.53C101,58.31,102,57.59,103,55.8Z"/><path class="cls-7" d="M95.85,109.59l.19-1.12c.65,0,.84.6,1.17,1a5.11,5.11,0,0,1,.13,3.43c-1.79,2.43-4.21,3.42-6.7,1.59-1.92-1.41-2.24-3.7-.54-5.82a3.53,3.53,0,0,1,1.15,1.95c.35.94.39,2.17,1.77,2.22s1.8-.85,2.12-1.91A2.61,2.61,0,0,1,95.85,109.59Z"/><path class="cls-5" d="M103.4,89.5c1.62,2.09,1.19,4.25.23,6.43a188.11,188.11,0,0,1-24-.14c6.62-.67,13.26-.19,19.88-.31,4.27-.07,4.27,0,4.1-4.4A14.32,14.32,0,0,0,103.4,89.5Z"/><path class="cls-2" d="M79.65,95.79l24,.14c-.88.91-2,.55-3.06.55q-9.18,0-18.38,0c-1,0-2.18.36-3-.61A.31.31,0,0,1,79.65,95.79Z"/><path class="cls-2" d="M119.15,113.08c-1.8,2.08-3.78,3.32-6.42,1.33a.73.73,0,0,1,0-1.15l.19-.17c1.49-.21,3.16.24,4.32-1.17.67-.71.51-1.86,1.29-2.52l.14-.14a.45.45,0,0,1,.51.24A4.42,4.42,0,0,1,119.15,113.08Z"/><path class="cls-5" d="M92.46,97.22c1.58,2.74,1.25,8.86-.54,10.12C93.43,104,92.45,100.6,92.46,97.22Z"/><path class="cls-8" d="M95.14,107.46c-.56-.08-1.15-.38-1.11-.91.23-3.13-1-6.37.71-9.38C94.28,100.63,93.73,104.08,95.14,107.46Z"/><path class="cls-9" d="M114.45,97.21c1.69,3.18.79,6.49.46,9.77,0,.16-.73.27-1.11.4C115.56,104.09,114.37,100.61,114.45,97.21Z"/><path class="cls-2" d="M90.72,110.67c-.74-.5-.53-1.29-.62-2A1.79,1.79,0,0,1,92,107.32l.74,1.34A4.48,4.48,0,0,1,90.72,110.67Z"/><path class="cls-10" d="M119.15,113.08V109.5A2.41,2.41,0,0,1,119.15,113.08Z"/><path class="cls-11" d="M86.23,63.56c-1,1.29-2.36.55-3.57.66C83.74,63.43,85.08,64,86.23,63.56Z"/><path class="cls-12" d="M97.34,112.91l-.13-3.43A2.57,2.57,0,0,1,97.34,112.91Z"/><path class="cls-13" d="M112.7,113.26l0,1.15a2.26,2.26,0,0,1-1.37-2.45Z"/><path class="cls-5" d="M134.65,100.47c1.74,1.4,2.8,3,1.66,5.31a4.51,4.51,0,0,1-4,2.51,3.86,3.86,0,0,1-3.74-2.59,3.94,3.94,0,0,1,.93-4.7,3.26,3.26,0,0,1,1.11,1.41c.27.7.29,1.47.57,2.16s.59,1.45,1.58,1.21a1.68,1.68,0,0,0,1.25-1.32c.22-.87-.27-1.38-1-1.77s-2-.19-2.36-1.36C131.62,99.38,133.39,101.13,134.65,100.47Z"/><path class="cls-5" d="M118.62,96H115.2a51.32,51.32,0,0,1-9.52,0c-1-.81-.72-1.89-.59-2.93,1.37.24.46,1.66,1.17,2.24q9.85.1,19.72.24c1,0,2.09.15,3.14.24C125.64,96.56,122.12,96.13,118.62,96Z"/><path class="cls-9" d="M133.41,83.62a1.53,1.53,0,0,1,.65,1.41c-1.42,1.66-2.69,3.55-5.21,3.66l0-.65a1,1,0,0,1-.25-.81A13.08,13.08,0,0,1,133.41,83.62Z"/><path class="cls-9" d="M130.11,102.3a1.42,1.42,0,0,1-.62-1.3c.11-1.11,2.4-.77,1.63-2.46l1.23-.2c.63.86.86,2.14,2.3,2.13-1.06,1.17-2.86-.16-3.86,1.16A.79.79,0,0,1,130.11,102.3Z"/><path class="cls-9" d="M118.62,96l10.5-.24.56.67C126,96.29,122.27,97.06,118.62,96Z"/><path class="cls-14" d="M117.12,107.47c-.29-.12-.8-.21-.82-.37-.5-3.32-1.25-6.67.41-9.91C116.31,100.64,115.74,104.09,117.12,107.47Z"/><path class="cls-1" d="M106.26,95.28c-1.71-.06-.53-1.62-1.17-2.24.56-1-.35-2.31.61-3.26C106.78,91.52,106,93.45,106.26,95.28Z"/><path class="cls-10" d="M127.15,66.79c-1.6.08-1.54-1-1.54-2.11V61.24C127.23,62.78,124.89,65.42,127.15,66.79Z"/><path class="cls-15" d="M136.68,79.92l0-3.66A4,4,0,0,1,136.68,79.92Z"/><path class="cls-16" d="M213.06,81.81c-.78-.41-2.25.7-2.31-.75-.05-1.26,1.16-1.93,2.45-1.93s2.27.55,2.25,1.73C215.43,82.7,213.81,81.33,213.06,81.81Z"/><path class="cls-17" d="M128.8,87.37c0,.22,0,.45,0,.67l-2.63.28q-21.21.3-42.42,0l-2-.23a6.08,6.08,0,0,1,0-.61c1.1-1.12,2.54-1,3.91-1q19.76,0,39.51,0C126.43,86.46,127.75,86.42,128.8,87.37Z"/><path class="cls-9" d="M83.76,88.33h42.42a2.83,2.83,0,0,1-2.13.44H85.9A2.89,2.89,0,0,1,83.76,88.33Z"/><path class="cls-18" d="M117.8,112.57c-1.52,1.26-3.11,1.88-4.91.52-.06-1.3-1-2.79.44-3.81s2.93-.7,4.34.2C118.58,110.47,118.29,111.52,117.8,112.57Z"/><path class="cls-19" d="M90.72,110.67c.27-1.06.68-2,2-2a4.69,4.69,0,0,1,3.15.93,7.33,7.33,0,0,1-.07,2.53,2.76,2.76,0,0,1-3.13,1.64C90.47,113.57,91.11,111.85,90.72,110.67Z"/><path class="cls-9" d="M105.68,96l9.52,0A18.3,18.3,0,0,1,105.68,96Z"/><path class="cls-10" d="M117.8,112.57a3.64,3.64,0,0,0-.13-3.09l.83-.08C118.38,110.49,119.14,111.76,117.8,112.57Z"/><path class="cls-20" d="M128.8,87.37c-15.69.79-31.38.41-47.07.12C77,86.33,74.1,82.6,73.82,77.41c-.26-4.85,2.63-9.59,6.8-11.11.79-.29,1.6-.53,2.41-.78,1.41-.71,3,.25,4.43-.59L89,61.19c1.27.31,1.85-.87,2.76-1.32,2.31-1.14,4.85-1.79,7-.51,3,1.75,4.3.84,5-2.16,3.8-4.29,9.49-5.62,14.22-3.41,4.5,2.1,7.71,7.85,5.84,13.35,0,.1.21.3.33.45,1.07.62,2.4-.21,3.44.62,7.21,3.18,9.12,8.19,5.84,15.41C132.3,85.39,130.43,86.23,128.8,87.37Z"/><path class="cls-10" d="M127.57,68.21c-1.18-.07-2.44.36-3.44-.62C125.3,67.64,126.59,67,127.57,68.21Z"/><path class="cls-11" d="M87.46,64.93c-1.33,1.26-3,.29-4.43.59C84.38,64.39,86,65.16,87.46,64.93Z"/><path class="cls-21" d="M74.15,102.36c1.72-1.22,3.46-1.61,4.6.58,1,1.9-.6,2.76-1.89,3.75-1.75,1.34-2.1-.44-2.94-1.17C73.69,104.44,73.26,103.35,74.15,102.36Z"/><path class="cls-22" d="M74.15,102.36l-.23,3.16C73.06,104.4,72.85,103.33,74.15,102.36Z"/><path class="cls-23" d="M130.11,102.3l.68-.67c1.79-.42,3.48-.27,4.23,1.65s-.89,2.43-2,3.4c-1.49,1.35-1.71-.41-2.33-.86C129.48,104.93,130.1,103.52,130.11,102.3Z"/></g></g></svg>